<mxfile host="app.diagrams.net" modified="2023-09-22T10:56:03.923Z" agent="Mozilla/5.0 (Macintosh; Intel Mac OS X 10_15_7) AppleWebKit/537.36 (KHTML, like Gecko) Chrome/117.0.0.0 Safari/537.36" version="21.8.0" etag="ER1FdWji0-JjdALcy2VS" type="github">
  <diagram name="Page-1" id="ay6fTmJ9oWB69PGVDceu">
    <mxGraphModel>
      <root>
        <mxCell id="0" />
        <mxCell id="1" parent="0" />
      </root>
    </mxGraphModel>
  </diagram>
</mxfile>
